<svg xmlns="http://www.w3.org/2000/svg" viewBox="0 0 512 512">
  <path d="M256 48C141.1 48 48 141.1 48 256s93.1 208 208 208 208-93.1 208-208S370.9 48 256 48zm83.8 166.3c-1.2 5.8-3.5 10.8-7.1 15.3-5.3 6.6-12.5 10.4-21.4 11.8-5.8.9-11.6.9-17.4-.1-7.1-1.3-13-4.6-18.3-9.4-1.1-1-2.1-2.1-3.2-3.2-.5.6-1 1.1-1.4 1.6-5.3 6.6-11.8 11.5-20.1 13.5-5.5 1.3-11.1 1.3-16.7.2-8.8-1.7-15.5-6.4-20.6-13.5-.9-1.3-1.7-2.7-2.4-4.1-.5.5-.9 1-1.2 1.4-5.6 6.8-12.6 11.7-21.4 13.7-5.2 1.2-10.5 1.2-15.7.2-9.4-1.8-16.5-6.8-21.7-14.4-1-1.5-1.9-3.2-2.4-4.9-3.7-12 .7-24.1 10.8-29.7 6.1-3.4 12.6-3.8 19.3-2.7 3.3.6 6.5 1.6 9.7 2.6 1.2.4 2.4.8 3.6 1.2.5-7.1-2.8-12.3-8.8-12.9-3.3-.3-6.5.4-9.7 1-1.4.3-2.8.6-4.4.9-.6-5.6-1.1-11.2-1.7-17 .9-.2 1.7-.3 2.5-.5 18.3-3.8 34.3-.2 46.4 14.2l.3.3c.3-.5.6-.9.9-1.3 5.9-8.8 14.2-13.5 24.7-14.5 6.5-.6 13 .3 19.1 3 5.3 2.4 9.4 6.2 12.4 11.2.8-1.1 1.5-2.2 2.3-3.1 5.4-6.4 12.2-10.5 20.4-12.2 4.5-.9 9-.9 13.5 0 18.7 3.8 28.3 25.9 19.4 43zM164.2 325.5c-2.2-1.1-4.3-2.5-6.1-4.2-12.7-11.6-12.4-31.6.5-43 6.5-5.8 14.3-8.5 23-8.5 15.8.1 29.3 10.3 33.7 25.5 5.1 17.4-4.9 35.8-22.5 41.3-13.3 4.2-27.3.2-37.4-11.8 3 .2 5.8.2 8.6-.2 7.8-1.1 14-4.7 18.5-11.3 5.8-8.7 5.7-20.5-.4-29-2.9-4.1-7-7-11.9-8.4-11.1-3.2-21.5 4.2-23.3 15.4-.9 5.6 1.3 10.1 6.2 13 .6.4 1.2.7 1.9 1.1.9.5 1.8 1 2.7 1.5l7.5 4.2zm180.6-68c.4 0 .8-.1 1.2-.1 5.3-.3 10.6-.6 15.8-.8 4.2-.2 8.4-.1 12.5.5 11.7 1.9 19.6 8.5 23.8 19.4 5.7 14.9 1.3 35.7-18.2 43.4-13.9 5.5-27.8 5.7-41.5-.2-17.2-7.4-23.5-24.9-15.6-41.7 6.2-13.4 18.4-19.7 32.4-20.7-7.3 2.1-13.3 5.9-17.9 11.7-8.5 10.6-8.5 24.3-.1 35 8.6 10.7 24.6 13.6 35.9 6.6 10.2-6.4 13.6-21.5 6.7-30.7-2.8-3.7-6.5-6.4-11.1-7.4-7-1.4-13.6.6-18.5 6.2-.7.8-1.3 1.6-1.9 2.5-3.2 4.4-3.6 9.4-1.8 14.3.2.5.4 1 .6 1.5-1.1.1-2-.1-2.9-.5-7.7-3.5-10-14.3-4.4-20.9 5.6-6.5 13.2-8.8 21.5-7.1 14.6 3 21.5 19.1 13.8 32.3-8.3 14.3-28.5 16.3-39.3 4.1-9.7-11-9.4-27.9.7-38.7 2.1-2.2 4.4-4.1 7-5.6zm-107.7 64.9v.1-.1z" fill="currentColor"/>
</svg>
